<?xml version="1.0" standalone="no"?>
<!DOCTYPE svg PUBLIC "-//W3C//DTD SVG 20010904//EN"
 "http://www.w3.org/TR/2001/REC-SVG-20010904/DTD/svg10.dtd">
<svg version="1.0" xmlns="http://www.w3.org/2000/svg"
 width="1920.000000pt" height="1080.000000pt" viewBox="0 0 1920.000000 1080.000000"
 preserveAspectRatio="xMidYMid meet">
<metadata>
Created by potrace 1.16, written by Peter Selinger 2001-2019
</metadata>
<g transform="translate(0.000000,1080.000000) scale(0.100000,-0.100000)"
fill="#000000" stroke="none">
<path d="M0 5400 l0 -5400 9600 0 9600 0 0 5400 0 5400 -9600 0 -9600 0 0
-5400z m9659 1269 c106 -22 211 -161 211 -276 0 -107 -66 -215 -160 -263 l-40
-20 0 -318 0 -318 66 -28 66 -29 155 154 154 154 -3 89 c-3 82 -5 90 -28 105
-14 8 -52 42 -86 73 -75 71 -88 107 -82 217 6 98 38 159 112 209 127 85 264
77 374 -22 81 -73 110 -215 65 -316 -27 -61 -106 -146 -148 -160 l-35 -12 0
-126 0 -127 -179 -179 -178 -178 23 -56 c13 -32 24 -63 24 -69 0 -10 35 -13
143 -13 l142 0 153 153 152 153 -40 39 c-129 126 -94 340 73 450 14 8 52 20
86 26 124 20 242 -36 307 -146 56 -96 38 -240 -40 -331 -38 -45 -113 -88 -167
-98 -31 -5 -69 -39 -244 -216 l-209 -210 -185 -2 -185 -3 -7 -26 c-11 -44 -75
-130 -131 -175 -101 -83 -261 -109 -385 -62 -75 28 -158 109 -202 199 l-32 66
-182 7 -182 7 -210 210 c-172 171 -215 209 -238 209 -77 0 -203 103 -232 190
-22 67 -17 168 13 226 28 55 114 131 165 146 106 30 231 5 300 -60 58 -55 81
-108 85 -202 5 -98 -9 -138 -75 -211 l-36 -40 149 -150 149 -149 142 0 143 0
6 28 c4 15 16 45 26 66 l20 39 -181 181 -181 181 0 126 0 126 -40 18 c-78 35
-150 137 -166 232 -11 69 25 169 82 227 57 57 82 71 161 86 83 17 146 1 221
-54 81 -60 116 -127 114 -219 0 -38 -6 -85 -13 -105 -20 -63 -73 -125 -133
-157 l-56 -30 0 -90 0 -90 155 -155 156 -156 64 30 64 31 0 241 c1 133 4 275
7 316 l7 75 -55 31 c-173 97 -209 308 -77 447 79 83 169 110 288 84z"/>
<path d="M9463 6640 c-66 -33 -117 -83 -141 -139 -23 -56 -20 -168 7 -224 25
-52 93 -119 147 -145 l37 -17 -6 -185 c-4 -102 -7 -246 -7 -322 l0 -136 -70
-35 -70 -35 -160 155 -160 155 0 101 0 102 57 30 c64 33 116 94 133 153 16 60
12 162 -9 207 -43 92 -151 159 -257 158 -137 -1 -243 -91 -274 -234 -11 -49
-10 -63 5 -110 10 -30 32 -73 48 -97 31 -42 108 -102 134 -102 10 0 13 -28 13
-127 l0 -128 182 -182 181 -181 -20 -49 c-11 -26 -23 -60 -27 -75 l-6 -28
-154 0 -153 0 -146 154 c-81 85 -147 157 -147 161 0 4 18 28 41 52 54 59 69
99 69 180 -1 166 -107 273 -272 273 -105 0 -140 -13 -202 -74 -41 -40 -58 -65
-70 -106 -35 -117 -8 -222 75 -294 49 -43 118 -76 156 -76 19 0 71 -47 230
-210 l205 -210 184 0 184 0 24 -54 c77 -174 197 -253 369 -244 147 8 271 91
333 226 l29 62 180 0 179 0 216 215 c176 175 221 215 243 215 98 0 217 124
233 244 15 106 -49 232 -141 276 -51 25 -141 36 -209 26 -61 -10 -156 -94
-183 -164 -40 -105 -18 -212 64 -303 l36 -40 -154 -155 -154 -154 -152 0
c-103 0 -153 4 -153 11 0 6 -12 40 -26 76 l-26 65 181 182 181 181 0 125 0
125 46 19 c46 19 115 92 136 146 49 119 8 268 -90 332 -60 39 -101 52 -167 51
-112 -1 -234 -85 -263 -181 -16 -53 -15 -155 2 -196 19 -46 68 -99 131 -141
l55 -36 0 -92 0 -92 -159 -159 -159 -159 -71 28 -71 28 0 328 0 328 46 22 c25
13 60 40 79 60 39 43 75 134 75 189 0 63 -37 148 -87 197 -54 55 -92 71 -180
78 -62 5 -74 3 -130 -25z m210 -34 c89 -37 160 -171 137 -258 -25 -93 -79
-153 -165 -184 l-30 -11 -3 -239 c-4 -321 5 -484 27 -491 9 -3 52 -22 95 -41
l79 -37 174 179 173 179 0 122 0 122 -42 19 c-59 26 -135 105 -149 155 -18 60
0 160 38 207 42 51 126 92 191 92 129 0 233 -105 231 -235 -2 -101 -79 -199
-180 -229 -13 -3 -17 -28 -23 -143 l-7 -138 -185 -186 -186 -187 26 -44 c14
-25 31 -70 37 -101 l12 -57 176 0 176 0 184 184 184 185 -33 28 c-96 80 -127
148 -109 237 14 66 40 107 94 152 85 69 225 55 304 -31 51 -55 63 -84 63 -155
2 -119 -104 -240 -209 -240 -23 0 -65 -37 -238 -210 l-209 -210 -190 -2 c-156
-3 -190 -6 -197 -18 -4 -8 -20 -42 -35 -75 -72 -156 -247 -237 -407 -189 -85
25 -159 99 -207 206 l-35 78 -185 0 -185 0 -210 210 c-161 161 -216 210 -235
210 -63 1 -170 71 -203 134 -29 55 -28 145 1 202 27 53 91 110 139 123 154 43
292 -44 310 -197 9 -76 -11 -124 -78 -197 l-61 -64 178 -181 177 -180 175 2
175 3 17 61 c9 34 27 78 39 99 l22 38 -190 191 -191 191 -2 134 -3 134 -42 14
c-56 19 -126 96 -143 158 -26 95 13 198 96 253 78 52 168 55 249 7 89 -52 128
-141 107 -242 -17 -82 -52 -127 -128 -164 l-64 -32 0 -126 0 -126 179 -179
179 -179 43 31 c23 17 63 39 89 47 43 14 48 19 54 53 3 20 6 180 6 355 l0 317
-47 28 c-110 64 -153 128 -153 225 0 30 5 68 11 84 15 40 77 102 124 124 48
22 142 25 188 5z"/>
<path d="M9500 6513 c-58 -40 -78 -91 -65 -160 10 -54 70 -108 129 -117 152
-23 226 185 97 271 -43 29 -124 31 -161 6z"/>
<path d="M8915 6325 c-22 -8 -53 -28 -69 -46 -26 -29 -28 -37 -24 -94 7 -110
63 -156 170 -142 46 6 84 37 104 84 53 124 -56 242 -181 198z"/>
<path d="M10112 6307 c-59 -39 -75 -95 -52 -178 13 -48 71 -89 125 -89 94 0
173 79 162 163 -4 30 -16 51 -46 80 -36 37 -45 41 -98 44 -47 2 -64 -1 -91
-20z"/>
<path d="M8386 5837 c-84 -26 -127 -126 -87 -204 29 -59 68 -83 131 -83 145 0
204 176 88 263 -42 32 -83 39 -132 24z"/>
<path d="M10686 5839 c-57 -16 -106 -81 -106 -142 0 -90 55 -142 152 -142 53
0 61 3 94 37 32 31 38 44 42 92 4 49 1 62 -22 97 -35 52 -99 76 -160 58z"/>
<path d="M9470 5313 c-122 -64 -173 -205 -119 -330 34 -80 86 -121 180 -142
75 -17 186 20 237 79 52 60 75 169 53 248 -25 86 -125 159 -233 168 -56 5 -69
3 -118 -23z"/>
</g>
</svg>
